# This file uses centimeters as units for non-parametric coordinates.

mtllib straigh_pipe_LP.mtl
g default
v -2.360976 0.064413 -3.573856
v -2.390584 0.122521 -3.573856
v -2.436698 0.168635 -3.573856
v -2.494806 0.198243 -3.573856
v -2.559219 0.208445 -3.573856
v -2.623632 0.198243 -3.573856
v -2.681740 0.168635 -3.573856
v -2.727854 0.122521 -3.573856
v -2.757461 0.064413 -3.573856
v -2.767663 0.000000 -3.573856
v -2.757461 -0.064413 -3.573856
v -2.727854 -0.122521 -3.573856
v -2.681740 -0.168635 -3.573856
v -2.623632 -0.198242 -3.573856
v -2.559219 -0.208444 -3.573856
v -2.494806 -0.198242 -3.573856
v -2.436698 -0.168635 -3.573856
v -2.390584 -0.122521 -3.573856
v -2.360977 -0.064413 -3.573856
v -2.350775 0.000000 -3.573856
v -2.360976 0.064413 5.789776
v -2.390584 0.122521 5.789776
v -2.436698 0.168635 5.789776
v -2.494806 0.198243 5.789776
v -2.559219 0.208445 5.789776
v -2.623632 0.198243 5.789776
v -2.681740 0.168635 5.789776
v -2.727854 0.122521 5.789776
v -2.757461 0.064413 5.789776
v -2.767663 0.000000 5.789776
v -2.757461 -0.064413 5.789776
v -2.727854 -0.122521 5.789776
v -2.681740 -0.168635 5.789776
v -2.623632 -0.198242 5.789776
v -2.559219 -0.208444 5.789776
v -2.494806 -0.198242 5.789776
v -2.436698 -0.168635 5.789776
v -2.390584 -0.122521 5.789776
v -2.360977 -0.064413 5.789776
v -2.350775 0.000000 5.789776
v -2.440865 0.038456 5.789776
v -2.458541 0.073147 5.789776
v -2.486072 0.100678 5.789776
v -2.520763 0.118354 5.789776
v -2.559219 0.124445 5.789776
v -2.597675 0.118354 5.789776
v -2.632365 0.100678 5.789776
v -2.659897 0.073147 5.789776
v -2.677573 0.038455 5.789776
v -2.683664 0.000000 5.789776
v -2.677573 -0.038455 5.789776
v -2.659897 -0.073147 5.789776
v -2.632365 -0.100678 5.789776
v -2.597675 -0.118354 5.789776
v -2.559219 -0.124444 5.789776
v -2.520763 -0.118354 5.789776
v -2.486072 -0.100678 5.789776
v -2.458541 -0.073147 5.789776
v -2.440865 -0.038456 5.789776
v -2.434775 0.000000 5.789776
v -2.559219 0.000000 5.789776
v -2.597675 0.000000 5.789776
v -2.632365 0.000000 5.789776
v -2.520763 0.000000 5.789776
v -2.486072 0.000000 5.789776
v -2.659897 0.000000 5.789776
v -2.458541 -0.000000 5.789776
v -2.446572 0.036602 -3.573856
v -2.463395 0.069620 -3.573856
v -2.489599 0.095824 -3.573856
v -2.522618 0.112647 -3.573856
v -2.559219 0.118445 -3.573856
v -2.595820 0.112647 -3.573856
v -2.628839 0.095824 -3.573856
v -2.655042 0.069620 -3.573856
v -2.671866 0.036601 -3.573856
v -2.677663 0.000000 -3.573856
v -2.671866 -0.036601 -3.573856
v -2.655042 -0.069620 -3.573856
v -2.628839 -0.095824 -3.573856
v -2.595820 -0.112647 -3.573856
v -2.559219 -0.118444 -3.573856
v -2.522618 -0.112647 -3.573856
v -2.489599 -0.095824 -3.573856
v -2.463395 -0.069620 -3.573856
v -2.446572 -0.036601 -3.573856
v -2.440774 0.000000 -3.573856
v -2.559219 0.000000 -3.573856
v -2.522618 0.000000 -3.573856
v -2.489599 0.000000 -3.573856
v -2.595820 0.000000 -3.573856
v -2.628839 0.000000 -3.573856
v -2.463395 -0.000000 -3.573856
v -2.655042 0.000000 -3.573856
v -2.452085 0.000000 -3.573856
v -2.476497 -0.000000 -3.573856
v -2.506108 0.000000 -3.573856
v -2.540918 0.000000 -3.573856
v -2.577519 0.000000 -3.573856
v -2.612330 0.000000 -3.573856
v -2.641941 0.000000 -3.573856
v -2.666353 0.000000 -3.573856
vt 0.182436 0.044157
vt 0.189368 0.043773
vt 0.251973 0.025946
vt 0.252126 0.019004
vt 0.195844 0.041266
vt 0.249683 0.032501
vt 0.201227 0.036881
vt 0.245479 0.038027
vt 0.204992 0.031046
vt 0.239772 0.041984
vt 0.206769 0.024334
vt 0.233123 0.043984
vt 0.206386 0.017401
vt 0.226181 0.043831
vt 0.203878 0.010926
vt 0.219626 0.041540
vt 0.199493 0.005542
vt 0.214100 0.037336
vt 0.193658 0.001778
vt 0.210143 0.031630
vt 0.186946 0.000000
vt 0.208144 0.024980
vt 0.180013 0.000384
vt 0.208297 0.018038
vt 0.173538 0.002891
vt 0.210587 0.011484
vt 0.168155 0.007276
vt 0.214791 0.005957
vt 0.164390 0.013111
vt 0.220498 0.002001
vt 0.162612 0.019823
vt 0.227147 0.000001
vt 0.162996 0.026756
vt 0.234089 0.000154
vt 0.165503 0.033231
vt 0.240644 0.002445
vt 0.169889 0.038615
vt 0.246170 0.006649
vt 0.175723 0.042379
vt 0.250127 0.012355
vt 0.243173 0.024353
vt 0.243264 0.020209
vt 0.241805 0.028266
vt 0.239295 0.031566
vt 0.235889 0.033928
vt 0.231919 0.035122
vt 0.227775 0.035030
vt 0.223861 0.033663
vt 0.220562 0.031153
vt 0.218200 0.027746
vt 0.217006 0.023776
vt 0.217097 0.019632
vt 0.218465 0.015718
vt 0.220975 0.012419
vt 0.224381 0.010057
vt 0.228351 0.008863
vt 0.232496 0.008955
vt 0.236409 0.010322
vt 0.239708 0.012832
vt 0.242070 0.016239
vt 0.230135 0.021992
vt 0.233823 0.020214
vt 0.223120 0.025374
vt 0.226447 0.023770
vt 0.220479 0.026647
vt 0.239791 0.017338
vt 0.237150 0.018610
vt 0.183409 0.034624
vt 0.187349 0.034406
vt 0.191028 0.032981
vt 0.194087 0.030489
vt 0.196226 0.027174
vt 0.197236 0.023360
vt 0.197018 0.019420
vt 0.195594 0.015741
vt 0.193102 0.012682
vt 0.189786 0.010543
vt 0.185972 0.009533
vt 0.182033 0.009751
vt 0.178353 0.011176
vt 0.175294 0.013668
vt 0.173155 0.016983
vt 0.172145 0.020797
vt 0.172363 0.024737
vt 0.173788 0.028416
vt 0.176280 0.031475
vt 0.179595 0.033614
vt 0.186265 0.018514
vt 0.186976 0.016906
vt 0.187686 0.015298
vt 0.181696 0.028859
vt 0.182406 0.027251
vt 0.183116 0.025643
vt 0.183903 0.023861
vt 0.184691 0.022079
vt 0.180568 0.031411
vt 0.181132 0.030135
vt 0.185478 0.020296
vt 0.188250 0.014022
vt 0.188813 0.012746
vt 0.180082 0.032513
vt 0.189300 0.011644
vt 0.116059 0.001663
vt 0.109117 0.001663
vt 0.123001 0.001663
vt 0.129942 0.001663
vt 0.136884 0.001663
vt 0.143826 0.001663
vt 0.150767 0.001663
vt 0.018876 0.001663
vt 0.025818 0.001663
vt 0.032759 0.001663
vt 0.039701 0.001663
vt 0.046643 0.001663
vt 0.053584 0.001663
vt 0.060526 0.001663
vt 0.067468 0.001663
vt 0.074409 0.001663
vt 0.081351 0.001663
vt 0.088293 0.001663
vt 0.095234 0.001663
vt 0.102176 0.001663
vt 0.116059 0.998338
vt 0.109117 0.998338
vt 0.123001 0.998338
vt 0.129942 0.998338
vt 0.136884 0.998338
vt 0.143826 0.998338
vt 0.011935 0.998338
vt 0.018876 0.998338
vt 0.025818 0.998338
vt 0.032759 0.998338
vt 0.039701 0.998338
vt 0.046643 0.998338
vt 0.053584 0.998338
vt 0.060526 0.998338
vt 0.067468 0.998338
vt 0.074409 0.998338
vt 0.081351 0.998338
vt 0.088293 0.998338
vt 0.095234 0.998338
vt 0.102176 0.998338
vt 0.150767 0.998338
vt 0.011935 0.001663
vn 0.951057 0.309017 0.000000
vn 0.809017 0.587785 0.000000
vn 0.809017 0.587785 0.000000
vn 0.951057 0.309017 0.000000
vn 0.587785 0.809017 0.000000
vn 0.587785 0.809017 0.000000
vn 0.309017 0.951057 0.000000
vn 0.309017 0.951057 0.000000
vn 0.000000 1.000000 0.000000
vn 0.000000 1.000000 0.000000
vn -0.309017 0.951056 0.000000
vn -0.309017 0.951056 0.000000
vn -0.587786 0.809017 0.000000
vn -0.587786 0.809017 0.000000
vn -0.809018 0.587784 0.000000
vn -0.809018 0.587784 0.000000
vn -0.951057 0.309017 0.000000
vn -0.951057 0.309017 0.000000
vn -1.000000 0.000000 0.000000
vn -1.000000 0.000000 0.000000
vn -0.951057 -0.309017 0.000000
vn -0.951057 -0.309017 0.000000
vn -0.809018 -0.587784 0.000000
vn -0.809018 -0.587784 0.000000
vn -0.587785 -0.809017 0.000000
vn -0.587785 -0.809017 0.000000
vn -0.309017 -0.951057 0.000000
vn -0.309017 -0.951057 0.000000
vn 0.000000 -1.000000 0.000000
vn 0.000000 -1.000000 0.000000
vn 0.309017 -0.951057 0.000000
vn 0.309017 -0.951057 0.000000
vn 0.587785 -0.809017 0.000000
vn 0.587785 -0.809017 0.000000
vn 0.809018 -0.587785 0.000000
vn 0.809018 -0.587785 0.000000
vn 0.951057 -0.309017 0.000000
vn 0.951057 -0.309017 0.000000
vn 1.000000 -0.000002 0.000000
vn 1.000000 -0.000002 0.000000
vn 0.000000 0.000000 1.000000
vn 0.000000 -0.000003 1.000000
vn 0.000000 -0.000003 1.000000
vn 0.000000 0.000000 1.000000
vn 0.000000 -0.000005 1.000000
vn 0.000000 -0.000005 1.000000
vn 0.000000 -0.000002 1.000000
vn 0.000000 -0.000002 1.000000
vn 0.000000 0.000000 1.000000
vn 0.000000 0.000000 1.000000
vn 0.000000 0.000000 1.000000
vn 0.000000 0.000000 1.000000
vn 0.000000 -0.000002 1.000000
vn 0.000000 -0.000002 1.000000
vn 0.000000 0.000002 1.000000
vn 0.000000 0.000002 1.000000
vn 0.000000 0.000003 1.000000
vn 0.000000 0.000003 1.000000
vn 0.000000 0.000000 1.000000
vn 0.000000 0.000000 1.000000
vn 0.000000 0.000000 1.000000
vn 0.000000 0.000000 1.000000
vn 0.000000 0.000003 1.000000
vn 0.000000 0.000003 1.000000
vn 0.000000 0.000005 1.000000
vn 0.000000 0.000005 1.000000
vn 0.000000 0.000002 1.000000
vn 0.000000 0.000002 1.000000
vn 0.000000 0.000000 1.000000
vn 0.000000 0.000000 1.000000
vn 0.000000 0.000000 1.000000
vn 0.000000 0.000000 1.000000
vn 0.000000 0.000002 1.000000
vn 0.000000 0.000002 1.000000
vn 0.000000 -0.000002 1.000000
vn 0.000000 -0.000002 1.000000
vn 0.000000 -0.000003 1.000000
vn 0.000000 -0.000003 1.000000
vn 0.000000 0.000000 1.000000
vn 0.000000 0.000000 1.000000
vn 0.000000 0.000000 1.000000
vn 0.000000 0.000000 1.000000
vn 0.000000 0.000000 1.000000
vn 0.000000 0.000000 1.000000
vn 0.000000 0.000000 1.000000
vn 0.000000 0.000000 1.000000
vn 0.000000 0.000000 1.000000
vn 0.000000 0.000000 1.000000
vn 0.000000 -0.000002 1.000000
vn 0.000000 -0.000001 1.000000
vn 0.000000 0.000000 1.000000
vn 0.000000 0.000003 1.000000
vn 0.000000 0.000001 1.000000
vn 0.000000 0.000001 1.000000
vn 0.000000 0.000002 1.000000
vn 0.000000 0.000007 1.000000
vn 0.000000 0.000000 1.000000
vn 0.000000 0.000000 1.000000
vn 0.000000 -0.000001 1.000000
vn 0.000000 -0.000007 1.000000
vn 0.000000 0.000000 1.000000
vn 0.000000 0.000000 1.000000
vn 0.000000 0.000000 1.000000
vn 0.000000 0.000000 1.000000
vn 0.000000 0.000000 1.000000
vn 0.000000 -0.000000 1.000000
vn 0.000000 -0.000003 1.000000
vn 0.000000 -0.000000 -1.000000
vn 0.000000 -0.000000 -1.000000
vn 0.000000 -0.000000 -1.000000
vn 0.000000 -0.000000 -1.000000
vn 0.000000 -0.000000 -1.000000
vn 0.000000 -0.000000 -1.000000
vn 0.000000 -0.000000 -1.000000
vn 0.000000 -0.000000 -1.000000
vn 0.000000 -0.000000 -1.000000
vn 0.000000 -0.000000 -1.000000
vn 0.000000 -0.000000 -1.000000
vn 0.000000 -0.000000 -1.000000
vn 0.000000 -0.000000 -1.000000
vn 0.000000 -0.000000 -1.000000
vn 0.000000 -0.000000 -1.000000
vn 0.000000 -0.000000 -1.000000
vn 0.000000 -0.000000 -1.000000
vn 0.000000 -0.000000 -1.000000
vn 0.000000 -0.000000 -1.000000
vn 0.000000 -0.000000 -1.000000
vn 0.000000 -0.000000 -1.000000
vn 0.000000 -0.000000 -1.000000
vn 0.000000 -0.000000 -1.000000
vn 0.000000 -0.000000 -1.000000
vn 0.000000 -0.000000 -1.000000
vn 0.000000 -0.000000 -1.000000
vn 0.000000 -0.000000 -1.000000
vn 0.000000 -0.000000 -1.000000
vn 0.000000 -0.000000 -1.000000
vn 0.000000 -0.000000 -1.000000
vn 0.000000 -0.000000 -1.000000
vn 0.000000 -0.000000 -1.000000
vn 0.000000 -0.000000 -1.000000
vn 0.000000 -0.000000 -1.000000
vn 0.000000 -0.000000 -1.000000
vn 0.000000 -0.000000 -1.000000
vn 0.000000 -0.000000 -1.000000
vn 0.000000 -0.000000 -1.000000
vn 0.000000 -0.000000 -1.000000
vn 0.000000 -0.000000 -1.000000
vn 0.000000 -0.000000 -1.000000
vn 0.000000 -0.000000 -1.000000
vn 0.000000 -0.000000 -1.000000
vn 0.000000 -0.000000 -1.000000
vn 0.000000 -0.000000 -1.000000
vn 0.000000 -0.000000 -1.000000
vn 0.000000 -0.000000 -1.000000
vn 0.000000 -0.000000 -1.000000
vn 0.000000 -0.000000 -1.000000
vn 0.000000 -0.000000 -1.000000
vn 0.000000 -0.000000 -1.000000
vn 0.000000 -0.000000 -1.000000
vn 0.000000 -0.000000 -1.000000
vn 0.000000 -0.000000 -1.000000
vn 0.000000 -0.000000 -1.000000
vn 0.000000 -0.000000 -1.000000
vn 0.000000 -0.000000 -1.000000
vn 0.000000 -0.000000 -1.000000
vn 0.000000 -0.000000 -1.000000
vn 0.000000 -0.000000 -1.000000
vn 0.000000 -0.000000 -1.000000
vn 0.000000 -0.000000 -1.000000
vn 0.000000 -0.000000 -1.000000
vn 0.000000 -0.000000 -1.000000
vn 0.000000 -0.000000 -1.000000
vn 0.000000 -0.000000 -1.000000
vn 0.000000 -0.000000 -1.000000
vn 0.000000 -0.000000 -1.000000
vn 0.000000 -0.000000 -1.000000
vn 0.000000 -0.000000 -1.000000
vn 0.000000 -0.000000 -1.000000
vn 0.000000 -0.000000 -1.000000
vn 0.000000 -0.000000 -1.000000
vn 0.000000 -0.000000 -1.000000
vn 0.000000 -0.000000 -1.000000
s 1
g pCylinder3
usemtl initialShadingGroup
f 1/124/1 2/142/2 22/122/3 21/104/4
f 2/142/2 3/141/5 23/121/6 22/122/3
f 3/141/5 4/140/7 24/120/8 23/121/6
f 4/140/7 5/139/9 25/119/10 24/120/8
f 5/139/9 6/138/11 26/118/12 25/119/10
f 6/138/11 7/137/13 27/117/14 26/118/12
f 7/137/13 8/136/15 28/116/16 27/117/14
f 8/136/15 9/135/17 29/115/18 28/116/16
f 9/135/17 10/134/19 30/114/20 29/115/18
f 10/134/19 11/133/21 31/113/22 30/114/20
f 11/133/21 12/132/23 32/112/24 31/113/22
f 12/132/23 13/131/25 33/111/26 32/112/24
f 13/131/25 14/130/27 34/110/28 33/111/26
f 14/130/27 15/129/29 35/144/30 34/110/28
f 15/143/29 16/128/31 36/108/32 35/109/30
f 16/128/31 17/127/33 37/107/34 36/108/32
f 17/127/33 18/126/35 38/106/36 37/107/34
f 18/126/35 19/125/37 39/105/38 38/106/36
f 19/125/37 20/123/39 40/103/40 39/105/38
f 20/123/39 1/124/1 21/104/4 40/103/40
s 2
f 21/4/41 22/3/42 42/41/43 41/42/44
f 22/3/42 23/6/45 43/43/46 42/41/43
f 23/6/45 24/8/47 44/44/48 43/43/46
f 24/8/47 25/10/49 45/45/50 44/44/48
f 25/10/49 26/12/51 46/46/52 45/45/50
f 26/12/51 27/14/53 47/47/54 46/46/52
f 27/14/53 28/16/55 48/48/56 47/47/54
f 28/16/55 29/18/57 49/49/58 48/48/56
f 29/18/57 30/20/59 50/50/60 49/49/58
f 30/20/59 31/22/61 51/51/62 50/50/60
f 31/22/61 32/24/63 52/52/64 51/51/62
f 32/24/63 33/26/65 53/53/66 52/52/64
f 33/26/65 34/28/67 54/54/68 53/53/66
f 34/28/67 35/30/69 55/55/70 54/54/68
f 35/30/69 36/32/71 56/56/72 55/55/70
f 36/32/71 37/34/73 57/57/74 56/56/72
f 37/34/73 38/36/75 58/58/76 57/57/74
f 38/36/75 39/38/77 59/59/78 58/58/76
f 39/38/77 40/40/79 60/60/80 59/59/78
f 40/40/79 21/4/41 41/42/44 60/60/80
s 3
f 61/61/81 64/62/82 44/44/83 45/45/84
f 63/63/85 62/64/86 46/46/87 47/47/88
f 62/64/86 61/61/81 45/45/84 46/46/87
f 50/50/89 66/65/90 48/48/91 49/49/92
f 42/41/93 67/66/94 60/60/95 41/42/96
f 64/62/82 65/67/97 43/43/98 44/44/83
f 66/65/90 63/63/85 47/47/88 48/48/91
f 42/41/93 43/43/98 65/67/97 67/66/94
f 52/52/99 66/65/90 50/50/89 51/51/100
f 53/53/101 63/63/85 66/65/90 52/52/99
f 54/54/102 62/64/86 63/63/85 53/53/101
f 55/55/103 61/61/81 62/64/86 54/54/102
f 56/56/104 64/62/82 61/61/81 55/55/103
f 57/57/105 65/67/97 64/62/82 56/56/104
f 67/66/94 65/67/97 57/57/105 58/58/106
f 60/60/95 67/66/94 58/58/106 59/59/107
s 7
f 2/2/108 1/1/109 68/68/110 69/69/111
f 3/5/112 2/2/108 69/69/111 70/70/113
f 4/7/114 3/5/112 70/70/113 71/71/115
f 5/9/116 4/7/114 71/71/115 72/72/117
f 6/11/118 5/9/116 72/72/117 73/73/119
f 7/13/120 6/11/118 73/73/119 74/74/121
f 8/15/122 7/13/120 74/74/121 75/75/123
f 9/17/124 8/15/122 75/75/123 76/76/125
f 10/19/126 9/17/124 76/76/125 77/77/127
f 11/21/128 10/19/126 77/77/127 78/78/129
f 12/23/130 11/21/128 78/78/129 79/79/131
f 13/25/132 12/23/130 79/79/131 80/80/133
f 14/27/134 13/25/132 80/80/133 81/81/135
f 15/29/136 14/27/134 81/81/135 82/82/137
f 16/31/138 15/29/136 82/82/137 83/83/139
f 17/33/140 16/31/138 83/83/139 84/84/141
f 18/35/142 17/33/140 84/84/141 85/85/143
f 19/37/144 18/35/142 85/85/143 86/86/145
f 20/39/146 19/37/144 86/86/145 87/87/147
f 1/1/109 20/39/146 87/87/147 68/68/110
s 8
f 73/73/148 91/88/149 100/89/150 92/90/151 74/74/152
f 70/70/153 90/91/154 97/92/155 89/93/156 71/71/157
f 71/71/157 89/93/156 98/94/158 88/95/159 72/72/160
f 69/69/161 93/96/162 96/97/163 90/91/154 70/70/153
f 72/72/160 88/95/159 99/98/164 91/88/149 73/73/148
f 74/74/152 92/90/151 101/99/165 94/100/166 75/75/167
f 69/69/161 68/68/168 87/87/169 95/101/170 93/96/162
f 75/75/167 94/100/166 102/102/171 77/77/172 76/76/173
f 93/96/162 95/101/170 87/87/169 86/86/174 85/85/175
f 90/91/154 96/97/163 93/96/162 85/85/175 84/84/176
f 89/93/156 97/92/155 90/91/154 84/84/176 83/83/177
f 88/95/159 98/94/158 89/93/156 83/83/177 82/82/178
f 91/88/149 99/98/164 88/95/159 82/82/178 81/81/179
f 92/90/151 100/89/150 91/88/149 81/81/179 80/80/180
f 94/100/166 101/99/165 92/90/151 80/80/180 79/79/181
f 77/77/172 102/102/171 94/100/166 79/79/181 78/78/182
