# This file uses centimeters as units for non-parametric coordinates.

mtllib Concretewall_dooropening.mtl
g default
v -3.805619 5.712395 12.023898
v -4.442619 5.712395 12.023898
v -4.442619 0.060318 12.023898
v -3.805619 0.060318 12.023898
v -3.805619 5.712395 20.451070
v -4.442619 5.712395 20.451070
v -4.442619 0.060318 20.451070
v -3.805619 0.060318 20.451070
v -4.442619 0.060318 15.108624
v -3.805619 0.060318 15.108624
v -4.442619 0.060318 17.466515
v -3.805619 0.060318 17.466515
v -4.442619 4.547677 17.466515
v -4.442619 4.547677 15.108624
v -3.805619 4.547677 15.108624
v -3.805619 4.547677 17.466515
vt 0.386573 0.426133
vt 0.152441 0.831869
vt 0.591199 0.810643
vt 0.353605 0.835052
vt 0.232522 0.850290
vt 0.152170 0.849018
vt 0.353334 0.852202
vt 0.017167 0.399027
vt 0.773117 0.841690
vt 0.591385 0.390659
vt 0.620676 0.856432
vt 0.015681 0.427329
vt 0.537898 0.837968
vt 0.417086 0.836056
vt 0.375583 0.008596
vt 0.416815 0.853206
vt 0.380039 0.314360
vt 0.219375 0.316701
vt 0.016922 0.812494
vt 0.620948 0.839282
vt 0.387558 0.731928
vt 0.226878 0.732446
vt 0.225892 0.426651
vt 0.232793 0.833140
vt 0.214919 0.010937
vt 0.011554 0.013901
vt 0.000000 0.846610
vt 0.772846 0.858840
vt 0.537627 0.855118
vt 0.585773 0.005533
vt 1.000000 0.845280
vt 0.589957 0.425478
vt 0.999729 0.862430
vt 0.000271 0.829461
vn -1.000000 0.000000 0.000000
vn -1.000000 0.000000 0.000000
vn -1.000000 0.000000 0.000000
vn -1.000000 0.000000 0.000000
vn 0.000000 -1.000000 0.000000
vn 0.000000 -1.000000 0.000000
vn 0.000000 -1.000000 0.000000
vn 0.000000 -1.000000 0.000000
vn 1.000000 0.000000 0.000000
vn 1.000000 0.000000 0.000000
vn 1.000000 0.000000 0.000000
vn 1.000000 0.000000 0.000000
vn 0.000000 0.000000 -1.000000
vn 0.000000 0.000000 -1.000000
vn 0.000000 0.000000 -1.000000
vn 0.000000 0.000000 -1.000000
vn 0.000000 0.000000 1.000000
vn 0.000000 0.000000 1.000000
vn 0.000000 0.000000 1.000000
vn 0.000000 0.000000 1.000000
vn -1.000000 0.000000 0.000000
vn -1.000000 0.000000 0.000000
vn -1.000000 0.000000 0.000000
vn -1.000000 0.000000 0.000000
vn 0.000000 -1.000000 0.000000
vn 0.000000 -1.000000 0.000000
vn 0.000000 -1.000000 0.000000
vn 0.000000 -1.000000 0.000000
vn 1.000000 0.000000 0.000000
vn 1.000000 0.000000 0.000000
vn 1.000000 0.000000 0.000000
vn 1.000000 0.000000 0.000000
vn 0.000000 1.000000 0.000000
vn 0.000000 1.000000 0.000000
vn 0.000000 1.000000 0.000000
vn 0.000000 1.000000 0.000000
vn 0.000000 -1.000000 0.000000
vn 0.000000 -1.000000 0.000000
vn 0.000000 -1.000000 0.000000
vn 0.000000 -1.000000 0.000000
vn 0.000000 0.000000 -1.000000
vn 0.000000 0.000000 -1.000000
vn 0.000000 0.000000 -1.000000
vn 0.000000 0.000000 -1.000000
vn 0.000000 0.000000 1.000000
vn 0.000000 0.000000 1.000000
vn 0.000000 0.000000 1.000000
vn 0.000000 0.000000 1.000000
s 1
g pCube12
usemtl initialShadingGroup
f 11/1/1 7/32/2 6/3/3 13/21/4
s off
f 11/24/5 12/5/6 8/6/7 7/2/8
s 2
f 16/18/9 5/8/10 8/26/11 12/25/12
s off
f 2/9/13 1/28/14 4/11/15 3/20/16
f 6/34/17 7/2/18 8/6/19 5/27/20
s 1
f 3/12/21 9/23/22 14/22/23 2/19/24
s off
f 3/20/25 4/11/26 10/29/27 9/13/28
s 2
f 15/17/29 10/15/30 4/30/31 1/10/32
s off
f 6/31/33 5/33/34 1/28/35 2/9/36
s 1
f 14/22/23 13/21/4 6/3/3 2/19/24
s 2
f 5/8/10 16/18/9 15/17/29 1/10/32
s off
f 13/4/37 14/14/38 15/16/39 16/7/40
f 16/7/41 12/5/42 11/24/43 13/4/44
f 10/29/45 15/16/46 14/14/47 9/13/48
