# This file uses centimeters as units for non-parametric coordinates.

mtllib Concretewall_LP.mtl
g default
v -3.805620 5.712395 1.128917
v -4.442619 5.712395 1.128917
v -4.442619 0.060318 1.128917
v -3.805620 0.060318 1.128917
v -3.805620 5.712395 9.556088
v -4.442619 5.712395 9.556088
v -4.442619 0.060318 9.556088
v -3.805620 0.060318 9.556088
vt 0.634896 0.940156
vt 0.814732 0.591413
vt 0.017573 0.065421
vt 0.017573 0.940156
vt 0.731051 0.016001
vt 0.634896 0.526119
vt 0.665317 0.016001
vt 0.634896 0.479457
vt 0.814732 0.017716
vt 0.634896 0.065421
vt 0.750076 0.017716
vt 0.750076 0.591413
vt 0.017573 0.479457
vt 0.665317 0.599261
vt 0.017573 0.526119
vt 0.731051 0.599261
vt 0.634896 0.018758
vt 0.017573 0.018758
vn 0.000000 1.000000 0.000000
vn 0.000000 1.000000 0.000000
vn 0.000000 1.000000 0.000000
vn 0.000000 1.000000 0.000000
vn -1.000000 0.000000 0.000000
vn -1.000000 0.000000 0.000000
vn -1.000000 0.000000 0.000000
vn -1.000000 0.000000 0.000000
vn 0.000000 -1.000000 0.000000
vn 0.000000 -1.000000 0.000000
vn 0.000000 -1.000000 0.000000
vn 0.000000 -1.000000 0.000000
vn 1.000000 0.000000 0.000000
vn 1.000000 0.000000 0.000000
vn 1.000000 0.000000 0.000000
vn 1.000000 0.000000 0.000000
vn 0.000000 0.000000 -1.000000
vn 0.000000 0.000000 -1.000000
vn 0.000000 0.000000 -1.000000
vn 0.000000 0.000000 -1.000000
vn 0.000000 0.000000 1.000000
vn 0.000000 0.000000 1.000000
vn 0.000000 0.000000 1.000000
vn 0.000000 0.000000 1.000000
s off
g pCube2
usemtl initialShadingGroup
f 6/17/1 5/10/2 1/3/3 2/18/4
f 3/15/5 7/6/6 6/1/7 2/4/8
f 3/15/9 4/13/10 8/8/11 7/6/12
f 5/10/13 8/8/14 4/13/15 1/3/16
f 2/16/17 1/14/18 4/7/19 3/5/20
f 6/12/21 7/11/22 8/9/23 5/2/24
