# This file uses centimeters as units for non-parametric coordinates.

mtllib Concretewall_midbeam_LP.mtl
g default
v 9.140499 5.712395 1.173098
v 8.503501 5.712395 1.173098
v 8.503501 0.060318 1.173098
v 9.140499 0.060318 1.173098
v 9.140499 5.712395 9.582678
v 8.503501 5.712395 9.582678
v 8.503501 0.060318 9.582678
v 9.140499 0.060318 9.582678
v 9.140499 5.712395 4.776989
v 9.140499 0.060318 4.776989
v 9.140499 5.712395 5.986292
v 9.140499 0.060318 5.986292
v 9.706022 0.060318 5.986292
v 9.706022 5.712395 5.986292
v 9.706022 0.060318 4.776989
v 9.706022 5.712395 4.776989
v 8.503501 5.712395 5.986297
v 8.503501 0.060318 5.986297
v 8.503501 0.060318 4.776990
v 8.503501 5.712395 4.776990
vt 0.694750 0.550138
vt 0.732641 0.550138
vt 0.286936 0.932046
vt 0.310144 0.902178
vt 0.732641 0.000000
vt 0.732641 0.213928
vt 0.694750 0.213928
vt 0.651170 0.901982
vt 0.216581 0.764959
vt 0.679572 0.801339
vt 0.216581 0.214375
vt 0.216581 0.550584
vt 0.827598 0.580450
vt 0.706517 0.957894
vt 0.706412 0.774338
vt 0.256550 0.774596
vt 0.254473 0.550584
vt 0.254472 0.214375
vt 0.310102 0.829560
vt 0.651128 0.829364
vt 0.468848 0.550584
vt 0.281955 0.801567
vt 0.254473 0.000000
vt 0.002207 0.214375
vt 0.480822 0.213928
vt 0.678235 0.931822
vt 0.694750 0.764066
vt 0.946569 0.550138
vt 0.694750 0.000000
vt 0.946569 0.213928
vt 0.480822 0.550138
vt 0.732641 0.764066
vt 0.254473 0.764959
vt 0.468847 0.214375
vt 0.002207 0.550584
vt 0.216581 0.000000
vt 0.755663 0.916660
vt 0.827598 0.916660
vt 0.256655 0.958152
vt 0.755663 0.580450
vn 0.000000 1.000000 0.000000
vn 0.000000 1.000000 0.000000
vn 0.000000 1.000000 0.000000
vn 0.000000 1.000000 0.000000
vn 0.000000 -1.000000 0.000000
vn 0.000000 -1.000000 0.000000
vn 0.000000 -1.000000 0.000000
vn 0.000000 -1.000000 0.000000
vn 1.000000 0.000000 0.000000
vn 1.000000 0.000000 0.000000
vn 1.000000 0.000000 0.000000
vn 1.000000 0.000000 0.000000
vn 1.000000 0.000000 0.000000
vn 1.000000 0.000000 0.000000
vn 1.000000 0.000000 0.000000
vn 1.000000 0.000000 0.000000
vn -1.000000 0.000000 0.000000
vn -1.000000 0.000000 0.000000
vn -1.000000 0.000000 0.000000
vn -1.000000 0.000000 0.000000
vn 1.000000 0.000000 0.000000
vn 1.000000 0.000000 0.000000
vn 1.000000 0.000000 0.000000
vn 1.000000 0.000000 0.000000
vn 0.000000 0.000000 -1.000000
vn 0.000000 0.000000 -1.000000
vn 0.000000 0.000000 -1.000000
vn 0.000000 0.000000 -1.000000
vn 0.000000 0.000000 1.000000
vn 0.000000 0.000000 1.000000
vn 0.000000 0.000000 1.000000
vn 0.000000 0.000000 1.000000
vn 0.000000 0.000000 -1.000000
vn 0.000000 0.000000 -1.000000
vn 0.000000 0.000000 -1.000000
vn 0.000000 0.000000 -1.000000
vn 0.000000 0.000000 1.000000
vn 0.000000 0.000000 1.000000
vn 0.000000 0.000000 1.000000
vn 0.000000 0.000000 1.000000
vn 0.000000 1.000000 0.000000
vn 0.000000 1.000000 0.000000
vn 0.000000 1.000000 0.000000
vn 0.000000 1.000000 0.000000
vn -1.000000 0.000000 0.000000
vn -1.000000 0.000000 0.000000
vn -1.000000 0.000000 0.000000
vn -1.000000 0.000000 0.000000
vn 0.000000 -1.000000 0.000000
vn 0.000000 -1.000000 0.000000
vn 0.000000 -1.000000 0.000000
vn 0.000000 -1.000000 0.000000
vn 0.000000 -1.000000 0.000000
vn 0.000000 -1.000000 0.000000
vn 0.000000 1.000000 0.000000
vn 0.000000 1.000000 0.000000
s 1
g pCube4
usemtl initialShadingGroup
f 6/1/1 5/2/2 11/32/3 17/27/4
s 2
f 12/5/5 8/6/6 7/7/7 18/29/8
s off
f 5/2/9 8/6/10 12/30/11 11/28/12
f 9/35/13 10/24/14 4/11/15 1/12/16
s 3
f 17/31/17 18/25/18 7/7/19 6/1/20
s off
f 14/13/21 13/38/22 15/37/23 16/40/24
f 2/17/25 1/12/26 4/11/27 3/18/28
f 11/3/29 12/26/30 13/14/31 14/39/32
f 10/10/33 9/22/34 16/16/35 15/15/36
f 6/1/37 7/7/38 8/6/39 5/2/40
s 1
f 20/33/41 9/9/42 1/12/43 2/17/44
s 3
f 3/18/45 19/34/46 20/21/47 2/17/48
s 2
f 10/36/49 19/23/50 3/18/51 4/11/52
f 12/26/5 18/8/8 19/20/50 10/10/49 15/15/53 13/14/54
s 3
f 20/19/47 19/20/46 18/8/18 17/4/17
s 1
f 17/4/4 11/3/3 14/39/55 16/16/56 9/22/42 20/19/41
